<svg width="90" height="87" viewBox="0 0 90 87" fill="none" xmlns="http://www.w3.org/2000/svg">
<path d="M89.5143 43.4058C89.5143 67.0869 69.4759 86.2842 44.7572 86.2842C20.0385 86.2842 0 67.0869 0 43.4058C0 19.7247 20.0385 0.527435 44.7572 0.527435C69.4759 0.527435 89.5143 19.7247 89.5143 43.4058Z" fill="#FEF9EF"/>
<path d="M85.0386 43.4058C85.0386 64.7188 67.004 81.9963 44.7571 81.9963C22.5103 81.9963 4.47571 64.7188 4.47571 43.4058C4.47571 22.0928 22.5103 4.81527 44.7571 4.81527C67.004 4.81527 85.0386 22.0928 85.0386 43.4058Z" fill="#227C9D"/>
<path d="M83.9252 53.536C75.0473 63.265 55.8437 61.0963 41.0328 48.692C26.2218 36.2877 21.4121 18.3451 30.29 8.61603C39.1679 -1.11303 58.3715 1.05568 73.1824 13.46C87.9934 25.8643 92.8031 43.8069 83.9252 53.536Z" fill="#FFCB77"/>
<path d="M46.134 76.4032C40.0197 83.8474 27.6617 84.3025 18.5316 77.4199C9.40144 70.5372 6.9566 58.923 13.0709 51.4788C19.1851 44.0347 31.5432 43.5795 40.6733 50.4622C49.8034 57.3449 52.2483 68.9591 46.134 76.4032Z" fill="#FEF9EF"/>
<path d="M76.0872 45.1209C76.0872 49.3835 72.4803 52.839 68.0309 52.839C63.5815 52.839 59.9746 49.3835 59.9746 45.1209C59.9746 40.8583 63.5815 37.4028 68.0309 37.4028C72.4803 37.4028 76.0872 40.8583 76.0872 45.1209Z" fill="#FE6D73"/>
</svg>
